<?xml version="1.0" encoding="UTF-8" standalone="no"?>
<!-- Created with Inkscape (http://www.inkscape.org/) -->

<svg
   width="117.03778"
   height="154.62175"
   viewBox="0 0 30.966248 40.910339"
   version="1.1"
   id="svg5"
   xml:space="preserve"
   xmlns="http://www.w3.org/2000/svg"
   xmlns:svg="http://www.w3.org/2000/svg"><defs
     id="defs2" /><g
     id="layer1"
     transform="translate(-738.04475,-668.87208)"><path
       id="rect1220"
       style="fill:#5600ff;fill-opacity:1;stroke:#fefefe;stroke-width:0;stroke-linejoin:bevel"
       d="m 740.88132,674.28027 h 28.12969 v 35.50221 l -14.22053,-10.29302 -13.90916,10.29302 z" /><path
       id="path1733"
       style="fill:#9300ff;stroke:#fefefe;stroke-width:0;stroke-linejoin:bevel"
       d="m 738.04472,668.87207 h 28.12969 v 35.50221 l -14.22053,-10.29302 -13.90916,10.29302 z" /><g
       id="g610"
       transform="matrix(0.0668278,0,0,0.0668278,682.01997,637.7081)"><path
         style="fill:#3e00ff;fill-opacity:1;stroke:#fefefe;stroke-width:6;stroke-linejoin:bevel;stroke-dasharray:none;stroke-opacity:1"
         d="m 984.30105,773.20274 h 25.80315 l 12.9016,-22.34621 -51.60636,-89.38479 25.80315,-44.69238 90.31111,156.42343 25.8032,-2e-5 64.5079,-111.731 -64.508,-111.73098 h -25.8032 l -12.9015,22.34618 51.6063,89.3848 -25.8032,44.69241 -90.311,-156.42344 h -25.80315 l -64.50795,111.731 z"
         id="path586" /><g
         id="g608"
         style="stroke:#000000;stroke-width:2;stroke-dasharray:none;stroke-opacity:1"
         transform="translate(0.98688368,-6.414744)"><path
           style="fill:#9400ff;fill-opacity:0.996078;stroke:#000000;stroke-width:2;stroke-linejoin:bevel;stroke-dasharray:none;stroke-opacity:1"
           d="m 1009.1173,779.6175 -77.40949,-134.07721 -12.90159,22.34621 64.50796,111.731 z"
           id="path588" /><path
           style="fill:#9400ff;fill-opacity:0.996078;stroke:#000000;stroke-width:2;stroke-linejoin:bevel;stroke-dasharray:none;stroke-opacity:1"
           d="m 1009.1173,556.1555 -12.90159,22.34621 103.21269,178.76964 12.9015,-22.34621 z"
           id="path590" /><path
           style="fill:#9400ff;fill-opacity:0.996078;stroke:#000000;stroke-width:2;stroke-linejoin:bevel;stroke-dasharray:none;stroke-opacity:1"
           d="m 1086.5267,556.15553 51.6064,89.38479 -12.9016,22.34621 -51.6063,-89.3848 z"
           id="path592" /><path
           style="fill:#b143ff;fill-opacity:1;stroke:#000000;stroke-width:2;stroke-linejoin:bevel;stroke-dasharray:none;stroke-opacity:1"
           d="m 944.60939,667.8865 64.50791,-111.731 h -25.80312 l -51.60637,89.38479 z"
           id="path594" /><path
           style="fill:#b143ff;fill-opacity:1;stroke:#000000;stroke-width:2;stroke-linejoin:bevel;stroke-dasharray:none;stroke-opacity:1"
           d="m 1112.3299,734.92514 38.7048,-67.03861 -12.9016,-22.34621 -38.7048,67.03862 z"
           id="path596" /><path
           style="fill:#5700ff;fill-opacity:0.996078;stroke:#000000;stroke-width:2;stroke-linejoin:bevel;stroke-dasharray:none;stroke-opacity:1"
           d="m 1009.1173,779.6175 -64.50791,-111.731 12.90159,-22.34621 64.50792,111.731 z"
           id="path598" /><path
           style="fill:#5700ff;fill-opacity:0.996078;stroke:#000000;stroke-width:2;stroke-linejoin:bevel;stroke-dasharray:none;stroke-opacity:1"
           d="m 1009.1173,600.84791 103.2127,178.76962 -25.8032,2e-5 -90.31109,-156.42343 z"
           id="path600" /><path
           style="fill:#5700ff;fill-opacity:0.996078;stroke:#000000;stroke-width:2;stroke-linejoin:bevel;stroke-dasharray:none;stroke-opacity:1"
           d="m 1086.5267,556.15553 64.508,111.731 12.9016,-22.34621 -51.6064,-89.38479 z"
           id="path602" /><path
           style="fill:#3e00ff;fill-opacity:1;stroke:#000000;stroke-width:2;stroke-linejoin:bevel;stroke-dasharray:none;stroke-opacity:1"
           d="m 970.41256,667.8865 38.70474,-67.03859 -12.90154,-22.3462 -38.70478,67.03858 z"
           id="path604" /><path
           style="fill:#3e00ff;fill-opacity:1;stroke:#000000;stroke-width:2;stroke-linejoin:bevel;stroke-dasharray:none;stroke-opacity:1"
           d="m 1112.33,779.61755 64.5079,-111.73102 -12.9016,-22.34621 -64.5079,111.73103 z"
           id="path606" /></g></g></g></svg>
